HIERARCHY
ROOT Hips
{
	OFFSET -3.958830 18.904000 13.208200
	CHANNELS 6 Xposition Yposition Zposition Zrotation Yrotation Xrotation 
	JOINT LHipJoint
	{
		OFFSET 0.000000 0.000000 0.000000
		CHANNELS 3 Zrotation Yrotation Xrotation
		JOINT LeftUpLeg
		{
			OFFSET 1.800000 -1.400000 0.085000
			CHANNELS 3 Zrotation Yrotation Xrotation
			JOINT LeftLeg
			{
				OFFSET 2.215000 -6.000000 0.000000
				CHANNELS 3 Zrotation Yrotation Xrotation
				JOINT LeftFoot
				{
					OFFSET 2.500000 -6.900000 0.000000
					CHANNELS 3 Zrotation Yrotation Xrotation
					JOINT LeftToeBase
					{
						OFFSET 0.200000 -0.500000 1.950000
						CHANNELS 3 Zrotation Yrotation Xrotation
						End Site
						{
							OFFSET 0.000000 0.000000 0.000000
						}
					}
				}
			}
		}
	}
	JOINT RHipJoint
	{
		OFFSET 0.000000 0.000000 0.000000
		CHANNELS 3 Zrotation Yrotation Xrotation
		JOINT RightUpLeg
		{
			OFFSET -1.800000 -1.400000 0.085000
			CHANNELS 3 Zrotation Yrotation Xrotation
			JOINT RightLeg
			{
				OFFSET -2.215000 -6.000000 0.000000
				CHANNELS 3 Zrotation Yrotation Xrotation
				JOINT RightFoot
				{
					OFFSET -2.500000 -6.900000 0.000000
					CHANNELS 3 Zrotation Yrotation Xrotation
					JOINT RightToeBase
					{
						OFFSET -0.200000 -0.500000 1.950000
						CHANNELS 3 Zrotation Yrotation Xrotation
						End Site
						{
							OFFSET 0.000000 0.000000 0.000000
						}
					}
				}
			}
		}
	}
	JOINT LowerBack
	{
		OFFSET 0.000000 0.000000 0.000000
		CHANNELS 3 Zrotation Yrotation Xrotation
		JOINT Spine
		{
			OFFSET -0.087000 1.940000 -0.288900
			CHANNELS 3 Zrotation Yrotation Xrotation
			JOINT Spine1
			{
				OFFSET 0.000000 1.950000 0.060000
				CHANNELS 3 Zrotation Yrotation Xrotation
				JOINT Neck
				{
					OFFSET 0.000000 0.000000 0.000000
					CHANNELS 3 Zrotation Yrotation Xrotation
					JOINT Neck1
					{
						OFFSET 0.000000 1.600000 0.340000
						CHANNELS 3 Zrotation Yrotation Xrotation
						JOINT Head
						{
							OFFSET 0.000000 1.667000 -0.240000
							CHANNELS 3 Zrotation Yrotation Xrotation
							End Site
							{
								OFFSET 0.000000 0.000000 0.000000
							}
						}
					}
				}
				JOINT LeftShoulder
				{
					OFFSET 0.000000 0.000000 0.000000
					CHANNELS 3 Zrotation Yrotation Xrotation
					JOINT LeftArm
					{
						OFFSET 2.700000 1.550000 -0.730000
						CHANNELS 3 Zrotation Yrotation Xrotation
						JOINT LeftForeArm
						{
							OFFSET 5.450000 0.000000 0.000000
							CHANNELS 3 Zrotation Yrotation Xrotation
							JOINT LeftHand
							{
								OFFSET 3.450000 0.000000 0.000000
								CHANNELS 3 Zrotation Yrotation Xrotation
								JOINT LeftHandIndex1
								{
									OFFSET 0.750000 0.000000 0.000000
									CHANNELS 3 Zrotation Yrotation Xrotation
									End Site
									{
										OFFSET 0.000000 0.000000 0.000000
									}
								}
							}
						}
					}
				}
				JOINT RightShoulder
				{
					OFFSET 0.000000 0.000000 0.000000
					CHANNELS 3 Zrotation Yrotation Xrotation
					JOINT RightArm
					{
						OFFSET -2.700000 1.550000 -0.730000
						CHANNELS 3 Zrotation Yrotation Xrotation
						JOINT RightForeArm
						{
							OFFSET -5.450000 0.000000 0.000000
							CHANNELS 3 Zrotation Yrotation Xrotation
							JOINT RightHand
							{
								OFFSET -3.450000 0.000000 0.000000
								CHANNELS 3 Zrotation Yrotation Xrotation
								JOINT RightHandIndex1
								{
									OFFSET -0.750000 0.000000 0.000000
									CHANNELS 3 Zrotation Yrotation Xrotation
									End Site
									{
										OFFSET 0.000000 0.000000 0.000000
									}
								}
							}
						}
					}
				}
			}
		}
	}
}
MOTION
Frames: 10
Frame Time: 0.016667
0.418510 16.851100 -10.412470 0.592841 16.955993 9.847072 -15.190491 12.917261 2.721706 -0.852811 -1.684336 -13.666879 -4.509630 4.141127 8.535233 -0.253139 2.908262 3.588344 0.240060 0.143780 0.093760 18.330860 -9.837812 3.638151 -15.709289 3.051032 -26.236912 28.655438 -11.677168 19.401271 -0.564674 -5.449776 2.337167 0.093410 0.032860 0.052180 -3.913818 -2.342697 -7.507855 11.792173 -3.709991 11.087519 0.223383 -2.380452 10.685342 -0.278362 -9.256371 -12.490896 -16.694997 0.784827 22.174760 1.790010 -3.767970 -16.243350 3.035775 3.067103 8.686882 -40.582058 15.222988 -2.170673 -129.455551 -24.594283 38.522577 -3.127989 3.994620 0.296400 -0.114240 0.069480 0.113530 -1.765933 4.557625 5.851731 40.088997 1.262120 -3.032326 129.004391 33.718984 47.330644 2.205562 -2.375203 -0.054300 0.180540 -0.022650 -0.031350 
0.399810 16.844610 -10.439140 0.678301 17.261443 9.734987 -15.182590 12.875028 2.728797 -0.445623 -1.655519 -13.460616 -5.149199 4.198168 7.891263 -0.242082 2.944558 3.579067 0.235560 0.135230 0.095940 18.340509 -9.842889 3.641459 -15.730287 3.081218 -26.293853 28.740015 -11.724161 19.484973 -0.568338 -5.470416 2.330749 0.087230 0.029510 0.051280 -3.940397 -2.262632 -7.524408 11.980707 -3.676889 11.188911 -0.366733 -2.265847 10.890021 -0.051911 -9.124740 -12.518939 -16.353153 0.310389 22.097448 1.682620 -4.060030 -16.204250 2.451451 3.263100 8.641376 -41.767993 15.628887 -2.420013 -130.077080 -26.251389 41.940609 -3.140896 3.997969 0.297210 -0.115290 0.068660 0.110370 -1.657283 4.279903 5.993260 40.032688 0.432093 -3.273214 129.269569 34.158510 48.158576 2.207044 -2.371956 -0.054860 0.177670 -0.022510 -0.033890 
0.381570 16.834920 -10.460720 0.903481 17.362724 9.620436 -15.167882 12.808575 2.742188 -0.050767 -1.600789 -13.026989 -6.152515 4.323609 7.191791 -0.229913 3.042473 3.551932 0.228270 0.126880 0.083310 18.360601 -9.870482 3.615618 -15.773762 3.087282 -26.224276 28.543720 -11.773200 19.747852 -0.558595 -5.510281 2.315872 0.091810 0.047310 0.053940 -3.986679 -2.119198 -7.512662 12.088113 -3.518355 10.900907 -0.813894 -2.121140 11.271621 -0.035458 -9.097497 -12.430748 -16.236844 0.059067 22.150308 1.554990 -4.473750 -15.498780 1.642626 3.659993 8.662787 -43.881621 16.248590 -2.684600 -130.476632 -28.611481 46.366071 -3.173041 4.009254 0.280780 -0.098240 0.050880 0.111810 -0.915900 3.911077 5.920604 39.984022 0.144366 -3.129977 130.720263 35.917758 52.578018 2.213040 -2.375202 -0.059750 0.178970 -0.013620 -0.029710 
0.358380 16.829890 -10.493850 1.053548 16.992898 9.650486 -15.172128 12.790687 2.759586 0.051068 -1.637928 -13.159932 -6.646951 4.415365 7.192377 -0.245583 3.092391 3.534362 0.238860 0.140620 0.094330 18.356889 -9.885067 3.597611 -15.488024 3.142884 -26.451170 28.040914 -11.605936 19.791197 -0.537229 -5.450864 2.336394 0.111380 0.055410 0.058030 -3.965244 -2.071712 -7.504151 11.623211 -3.386932 10.708267 -1.004873 -2.083837 11.489483 0.119787 -8.738820 -12.306592 -15.549171 0.108443 22.263291 1.024590 -4.228990 -15.187950 0.779687 3.363518 8.579463 -45.149776 15.614681 -2.348246 -131.050425 -30.137906 49.646454 -3.219209 4.005483 0.271040 -0.077990 0.042670 0.112150 -0.389782 3.945216 5.804751 39.422703 0.590574 -2.765110 131.367011 37.512785 55.979682 2.207727 -2.369094 -0.065780 0.183970 -0.014630 -0.036570 
0.331800 16.836910 -10.526910 1.304104 16.820268 9.486105 -15.185323 12.809670 2.792835 0.200419 -1.647510 -13.160746 -7.137801 4.496050 7.057162 -0.249550 3.137426 3.513601 0.249650 0.153420 0.108410 18.339859 -9.904735 3.554505 -15.152211 3.181752 -26.636179 27.139771 -11.504251 20.295773 -0.519314 -5.385133 2.355426 0.122620 0.047740 0.059920 -3.919324 -2.097536 -7.506164 11.115843 -3.255113 10.862632 -0.966529 -2.016753 11.617460 0.268360 -8.611913 -12.163332 -15.397695 0.102696 22.587081 0.620030 -4.105580 -15.225340 0.009564 3.493323 8.367721 -46.836015 15.052623 -2.303759 -131.454001 -31.922101 53.094551 -3.241161 4.001447 0.272520 -0.075170 0.046750 0.108810 0.074379 3.763412 5.750373 39.150413 0.407404 -2.836341 131.569741 38.754306 58.167394 2.208878 -2.354999 -0.065770 0.184210 -0.017860 -0.043640 
0.300350 16.838900 -10.556160 1.457776 17.180544 9.196765 -15.174577 12.771434 2.790881 0.578426 -1.633983 -13.025063 -7.602791 4.557595 6.863703 -0.252497 3.177111 3.493508 0.275170 0.186180 0.133060 18.351112 -9.920743 3.556697 -15.180947 3.177223 -26.592812 27.245905 -11.539241 20.302796 -0.543660 -5.394392 2.341419 0.140620 0.031570 0.065080 -3.955518 -2.005988 -7.518299 11.231994 -3.162429 11.108580 -1.687438 -1.819163 11.823028 0.445982 -8.357862 -11.834057 -14.957151 -0.242692 22.965022 0.636550 -4.220560 -16.118500 -0.394429 4.155070 7.906854 -47.664227 14.342528 -2.181717 -132.314538 -33.938241 57.484366 -3.247884 3.998175 0.287110 -0.086220 0.070350 0.109880 0.034092 2.900723 5.639153 39.896280 -0.157315 -2.989476 130.899710 39.086265 58.017652 2.198090 -2.348578 -0.059430 0.192710 -0.028840 -0.047130 
0.273890 16.842550 -10.585820 1.916998 17.819664 9.012505 -15.164563 12.699448 2.799160 0.652650 -1.642203 -12.801796 -8.406576 4.684525 6.680599 -0.239079 3.249014 3.468574 0.276440 0.187450 0.133030 18.368211 -9.901279 3.586559 -15.889099 3.047574 -26.579252 27.928351 -11.733532 20.140476 -0.565393 -5.494827 2.302105 0.142170 0.029680 0.063300 -3.998944 -1.920344 -7.552648 11.260809 -3.199023 11.407944 -2.432069 -1.724543 11.841821 0.494011 -8.281586 -11.622387 -14.768230 -0.622062 23.044618 0.825940 -4.599030 -16.321600 -0.682072 5.053944 7.678843 -48.663509 14.676197 -2.570128 -133.013700 -36.780381 62.707766 -3.255106 3.998597 0.290570 -0.089830 0.071740 0.109150 0.153079 1.959463 5.541790 41.199282 -0.927573 -3.266833 130.260556 39.747700 58.416392 2.194758 -2.341560 -0.060240 0.195680 -0.028180 -0.047190 
0.250980 16.842670 -10.611660 2.319245 18.447101 9.006925 -15.149019 12.599429 2.797415 0.524945 -1.643943 -12.582801 -8.767175 4.645920 6.111659 -0.239786 3.260828 3.469382 0.276890 0.188050 0.133600 18.397490 -9.887737 3.627658 -16.548791 2.920551 -26.823410 28.613655 -11.919832 19.959572 -0.582957 -5.594489 2.262653 0.146170 0.033210 0.065710 -4.064250 -1.763922 -7.571292 11.472296 -3.176330 11.466590 -3.421177 -1.555003 11.908206 0.615510 -8.040633 -11.333436 -14.115189 -1.327799 22.707097 0.782820 -5.051790 -16.473200 -0.572760 6.461438 7.239585 -50.134065 14.633909 -2.858066 -134.076845 -40.029877 69.019378 -3.266595 4.005421 0.287170 -0.084100 0.068380 0.108610 -0.296246 0.384132 5.587199 43.065896 -2.385742 -3.459394 130.609662 40.393756 59.954502 2.173554 -2.353093 -0.061780 0.197910 -0.026600 -0.047620 
0.222640 16.846240 -10.636790 2.665501 18.916626 8.832702 -15.130762 12.524730 2.789795 0.677623 -1.655830 -12.478963 -9.257664 4.742530 6.139797 -0.219138 3.302461 3.456694 0.269070 0.176880 0.132670 18.419932 -9.914136 3.661687 -16.951848 2.871112 -27.153841 28.909545 -12.214150 20.382171 -0.598925 -5.707734 2.221422 0.135420 0.031440 0.069220 -4.125925 -1.578829 -7.594485 11.537076 -2.982188 11.745814 -4.430945 -1.186872 11.930638 0.812498 -7.638737 -11.068820 -13.237389 -2.127415 22.646811 0.801560 -5.487570 -16.202960 -0.402588 8.238378 6.763152 -51.986094 14.726622 -3.160262 -137.177074 -43.692705 78.615735 -3.270669 4.019216 0.279900 -0.080850 0.065890 0.106180 -0.962197 -1.610343 5.792303 46.041050 -4.557660 -4.145612 130.813069 42.019445 62.603348 2.161825 -2.358536 -0.056840 0.186560 -0.028340 -0.046880 
0.198720 16.852030 -10.649520 2.939214 18.887843 8.514755 -15.122248 12.513435 2.813283 0.770776 -1.573239 -11.976189 -9.568645 4.748953 5.645106 -0.205176 3.351126 3.449692 0.249180 0.149830 0.129330 18.424726 -9.977087 3.617124 -16.747908 2.820366 -27.237672 28.094780 -12.283839 21.102080 -0.581283 -5.705378 2.226466 0.120580 0.039220 0.068170 -4.149548 -1.478184 -7.599209 11.467770 -2.940450 11.973326 -5.487690 -1.030596 11.780668 1.156984 -7.339875 -10.834891 -12.700389 -2.348880 22.858301 0.519280 -5.363490 -15.602170 -1.266579 9.230971 6.320659 -53.494574 14.585065 -3.386231 -141.270436 -46.380543 88.193265 -3.299885 3.988287 0.277800 -0.070190 0.057430 0.100350 -0.864976 -2.865231 5.933879 47.428270 -6.326209 -4.888369 130.687263 43.662944 64.814317 2.154955 -2.340354 -0.066040 0.184560 -0.021690 -0.052760 
